<svg width="50" height="50" viewBox="0 0 50 50" fill="none" xmlns="http://www.w3.org/2000/svg">
<rect x="12.5" y="42.5" width="25" height="5" stroke="black"/>
<rect x="17.5" y="36.5" width="15" height="6" stroke="black"/>
<path d="M30.5 10.5C30.5 12.9003 29.8505 15.0508 28.8266 16.5866C27.8004 18.1259 26.4377 19 25 19C23.5623 19 22.1996 18.1259 21.1734 16.5866C20.1495 15.0508 19.5 12.9003 19.5 10.5C19.5 8.09966 20.1495 5.94918 21.1734 4.41339C22.1996 2.8741 23.5623 2 25 2C26.4377 2 27.8004 2.8741 28.8266 4.41339C29.8505 5.94918 30.5 8.09966 30.5 10.5Z" stroke="black"/>
<path d="M22 17.5L21 27.5372L20 36H30L28 17.5" stroke="black"/>
</svg>
